TITLE ""
FILE "2Q_j_1384-1400.mp3" MP3
  TRACK 01 AUDIO
    TITLE "2Q_j_1384-1400_001"
    INDEX 01 00:00:00
  TRACK 02 AUDIO
    TITLE "2Q_j_1384-1400_002"
    INDEX 01 00:00:14
  TRACK 03 AUDIO
    TITLE "2Q_j_1384-1400_003"
    INDEX 01 00:01:41
  TRACK 04 AUDIO
    TITLE "2Q_j_1384-1400_004"
    INDEX 01 00:02:11
  TRACK 05 AUDIO
    TITLE "2Q_j_1384-1400_005"
    INDEX 01 00:04:22
  TRACK 06 AUDIO
    TITLE "2Q_j_1384-1400_006"
    INDEX 01 00:04:67
  TRACK 07 AUDIO
    TITLE "2Q_j_1384-1400_007"
    INDEX 01 00:09:52
  TRACK 08 AUDIO
    TITLE "2Q_j_1384-1400_008"
    INDEX 01 00:10:26
  TRACK 09 AUDIO
    TITLE "2Q_j_1384-1400_009"
    INDEX 01 00:11:43
  TRACK 10 AUDIO
    TITLE "2Q_j_1384-1400_010"
    INDEX 01 00:12:13
  TRACK 11 AUDIO
    TITLE "2Q_j_1384-1400_011"
    INDEX 01 00:13:31
  TRACK 12 AUDIO
    TITLE "2Q_j_1384-1400_012"
    INDEX 01 00:14:01
  TRACK 13 AUDIO
    TITLE "2Q_j_1384-1400_013"
    INDEX 01 00:17:44
  TRACK 14 AUDIO
    TITLE "2Q_j_1384-1400_014"
    INDEX 01 00:18:18
  TRACK 15 AUDIO
    TITLE "2Q_j_1384-1400_015"
    INDEX 01 00:19:39
  TRACK 16 AUDIO
    TITLE "2Q_j_1384-1400_016"
    INDEX 01 00:20:11
  TRACK 17 AUDIO
    TITLE "2Q_j_1384-1400_017"
    INDEX 01 00:22:12
  TRACK 18 AUDIO
    TITLE "2Q_j_1384-1400_018"
    INDEX 01 00:22:55
  TRACK 19 AUDIO
    TITLE "2Q_j_1384-1400_019"
    INDEX 01 00:26:74
  TRACK 20 AUDIO
    TITLE "2Q_j_1384-1400_020"
    INDEX 01 00:27:48
  TRACK 21 AUDIO
    TITLE "2Q_j_1384-1400_021"
    INDEX 01 00:29:08
  TRACK 22 AUDIO
    TITLE "2Q_j_1384-1400_022"
    INDEX 01 00:29:53
  TRACK 23 AUDIO
    TITLE "2Q_j_1384-1400_023"
    INDEX 01 00:33:41
  TRACK 24 AUDIO
    TITLE "2Q_j_1384-1400_024"
    INDEX 01 00:34:11
  TRACK 25 AUDIO
    TITLE "2Q_j_1384-1400_025"
    INDEX 01 00:38:54
  TRACK 26 AUDIO
    TITLE "2Q_j_1384-1400_026"
    INDEX 01 00:39:26
  TRACK 27 AUDIO
    TITLE "2Q_j_1384-1400_027"
    INDEX 01 00:40:37
  TRACK 28 AUDIO
    TITLE "2Q_j_1384-1400_028"
    INDEX 01 00:41:11
  TRACK 29 AUDIO
    TITLE "2Q_j_1384-1400_029"
    INDEX 01 00:43:14
  TRACK 30 AUDIO
    TITLE "2Q_j_1384-1400_030"
    INDEX 01 00:43:59
  TRACK 31 AUDIO
    TITLE "2Q_j_1384-1400_031"
    INDEX 01 00:46:10
  TRACK 32 AUDIO
    TITLE "2Q_j_1384-1400_032"
    INDEX 01 00:46:63
  TRACK 33 AUDIO
    TITLE "2Q_j_1384-1400_033"
    INDEX 01 00:48:07
  TRACK 34 AUDIO
    TITLE "2Q_j_1384-1400_034"
    INDEX 01 00:48:50
  TRACK 35 AUDIO
    TITLE "2Q_j_1384-1400_035"
    INDEX 01 00:49:58
  TRACK 36 AUDIO
    TITLE "2Q_j_1384-1400_036"
    INDEX 01 00:50:30
  TRACK 37 AUDIO
    TITLE "2Q_j_1384-1400_037"
    INDEX 01 00:54:33
  TRACK 38 AUDIO
    TITLE "2Q_j_1384-1400_038"
    INDEX 01 00:55:09
  TRACK 39 AUDIO
    TITLE "2Q_j_1384-1400_039"
    INDEX 01 00:56:58
  TRACK 40 AUDIO
    TITLE "2Q_j_1384-1400_040"
    INDEX 01 00:57:30
  TRACK 41 AUDIO
    TITLE "2Q_j_1384-1400_041"
    INDEX 01 01:00:03
  TRACK 42 AUDIO
    TITLE "2Q_j_1384-1400_042"
    INDEX 01 01:00:46
  TRACK 43 AUDIO
    TITLE "2Q_j_1384-1400_043"
    INDEX 01 01:03:54
  TRACK 44 AUDIO
    TITLE "2Q_j_1384-1400_044"
    INDEX 01 01:04:34
  TRACK 45 AUDIO
    TITLE "2Q_j_1384-1400_045"
    INDEX 01 01:06:13
  TRACK 46 AUDIO
    TITLE "2Q_j_1384-1400_046"
    INDEX 01 01:06:60
  TRACK 47 AUDIO
    TITLE "2Q_j_1384-1400_047"
    INDEX 01 01:10:54
  TRACK 48 AUDIO
    TITLE "2Q_j_1384-1400_048"
    INDEX 01 01:11:24
  TRACK 49 AUDIO
    TITLE "2Q_j_1384-1400_049"
    INDEX 01 01:14:44
  TRACK 50 AUDIO
    TITLE "2Q_j_1384-1400_050"
    INDEX 01 01:15:14
  TRACK 51 AUDIO
    TITLE "2Q_j_1384-1400_051"
    INDEX 01 01:17:15
  TRACK 52 AUDIO
    TITLE "2Q_j_1384-1400_052"
    INDEX 01 01:17:60
  TRACK 53 AUDIO
    TITLE "2Q_j_1384-1400_053"
    INDEX 01 01:19:33
  TRACK 54 AUDIO
    TITLE "2Q_j_1384-1400_054"
    INDEX 01 01:20:03
  TRACK 55 AUDIO
    TITLE "2Q_j_1384-1400_055"
    INDEX 01 01:24:07
  TRACK 56 AUDIO
    TITLE "2Q_j_1384-1400_056"
    INDEX 01 01:24:60
  TRACK 57 AUDIO
    TITLE "2Q_j_1384-1400_057"
    INDEX 01 01:26:12
  TRACK 58 AUDIO
    TITLE "2Q_j_1384-1400_058"
    INDEX 01 01:26:63
  TRACK 59 AUDIO
    TITLE "2Q_j_1384-1400_059"
    INDEX 01 01:28:66
  TRACK 60 AUDIO
    TITLE "2Q_j_1384-1400_060"
    INDEX 01 01:29:36
  TRACK 61 AUDIO
    TITLE "2Q_j_1384-1400_061"
    INDEX 01 01:34:45
  TRACK 62 AUDIO
    TITLE "2Q_j_1384-1400_062"
    INDEX 01 01:35:19
  TRACK 63 AUDIO
    TITLE "2Q_j_1384-1400_063"
    INDEX 01 01:36:34
  TRACK 64 AUDIO
    TITLE "2Q_j_1384-1400_064"
    INDEX 01 01:37:04
  TRACK 65 AUDIO
    TITLE "2Q_j_1384-1400_065"
    INDEX 01 01:40:39
  TRACK 66 AUDIO
    TITLE "2Q_j_1384-1400_066"
    INDEX 01 01:41:10
  TRACK 67 AUDIO
    TITLE "2Q_j_1384-1400_067"
    INDEX 01 01:45:05
  TRACK 68 AUDIO
    TITLE "2Q_j_1384-1400_068"
    INDEX 01 01:45:54
  TRACK 69 AUDIO
    TITLE "2Q_j_1384-1400_069"
    INDEX 01 01:47:04
  TRACK 70 AUDIO
    TITLE "2Q_j_1384-1400_070"
    INDEX 01 01:47:57
  TRACK 71 AUDIO
    TITLE "2Q_j_1384-1400_071"
    INDEX 01 01:49:01
  TRACK 72 AUDIO
    TITLE "2Q_j_1384-1400_072"
    INDEX 01 01:49:48
  TRACK 73 AUDIO
    TITLE "2Q_j_1384-1400_073"
    INDEX 01 01:53:40
  TRACK 74 AUDIO
    TITLE "2Q_j_1384-1400_074"
    INDEX 01 01:54:18
  TRACK 75 AUDIO
    TITLE "2Q_j_1384-1400_075"
    INDEX 01 01:55:49
  TRACK 76 AUDIO
    TITLE "2Q_j_1384-1400_076"
    INDEX 01 01:56:21
  TRACK 77 AUDIO
    TITLE "2Q_j_1384-1400_077"
    INDEX 01 01:58:30
  TRACK 78 AUDIO
    TITLE "2Q_j_1384-1400_078"
    INDEX 01 01:58:73
  TRACK 79 AUDIO
    TITLE "2Q_j_1384-1400_079"
    INDEX 01 02:03:48
  TRACK 80 AUDIO
    TITLE "2Q_j_1384-1400_080"
    INDEX 01 02:04:24
  TRACK 81 AUDIO
    TITLE "2Q_j_1384-1400_081"
    INDEX 01 02:05:33
  TRACK 82 AUDIO
    TITLE "2Q_j_1384-1400_082"
    INDEX 01 02:06:09
  TRACK 83 AUDIO
    TITLE "2Q_j_1384-1400_083"
    INDEX 01 02:10:15
  TRACK 84 AUDIO
    TITLE "2Q_j_1384-1400_084"
    INDEX 01 02:10:60
  TRACK 85 AUDIO
    TITLE "2Q_j_1384-1400_085"
    INDEX 01 02:14:50
  TRACK 86 AUDIO
    TITLE "2Q_j_1384-1400_086"
    INDEX 01 02:15:28
  TRACK 87 AUDIO
    TITLE "2Q_j_1384-1400_087"
    INDEX 01 02:16:57
  TRACK 88 AUDIO
    TITLE "2Q_j_1384-1400_088"
    INDEX 01 02:17:27
  TRACK 89 AUDIO
    TITLE "2Q_j_1384-1400_089"
    INDEX 01 02:21:60
  TRACK 90 AUDIO
    TITLE "2Q_j_1384-1400_090"
    INDEX 01 02:22:30
  TRACK 91 AUDIO
    TITLE "2Q_j_1384-1400_091"
    INDEX 01 02:26:02
  TRACK 92 AUDIO
    TITLE "2Q_j_1384-1400_092"
    INDEX 01 02:26:51
  TRACK 93 AUDIO
    TITLE "2Q_j_1384-1400_093"
    INDEX 01 02:28:09
  TRACK 94 AUDIO
    TITLE "2Q_j_1384-1400_094"
    INDEX 01 02:28:54
  TRACK 95 AUDIO
    TITLE "2Q_j_1384-1400_095"
    INDEX 01 02:32:44
  TRACK 96 AUDIO
    TITLE "2Q_j_1384-1400_096"
    INDEX 01 02:33:14
  TRACK 97 AUDIO
    TITLE "2Q_j_1384-1400_097"
    INDEX 01 02:38:11
  TRACK 98 AUDIO
    TITLE "2Q_j_1384-1400_098"
    INDEX 01 02:38:58
  TRACK 99 AUDIO
    TITLE "2Q_j_1384-1400_099"
    INDEX 01 02:40:01
  TRACK 100 AUDIO
    TITLE "2Q_j_1384-1400_100"
    INDEX 01 02:40:44
  TRACK 101 AUDIO
    TITLE "2Q_j_1384-1400_101"
    INDEX 01 02:44:04
  TRACK 102 AUDIO
    TITLE "2Q_j_1384-1400_102"
    INDEX 01 02:44:49
  TRACK 103 AUDIO
    TITLE "2Q_j_1384-1400_103"
    INDEX 01 02:50:15
